<svg id="svg" xmlns="http://www.w3.org/2000/svg" xmlns:xlink="http://www.w3.org/1999/xlink" width="400" height="400" viewBox="0, 0, 400,400" version="1.1"><g id="svgg"><path id="path0" d="M194.570 44.023 C 181.579 49.021,185.765 65.769,200.000 65.748 C 211.539 65.731,217.531 53.813,209.603 46.650 C 208.202 45.384,207.365 44.914,204.281 43.656 C 202.464 42.915,196.903 43.125,194.570 44.023 M145.800 44.400 C 145.360 44.589,144.473 44.756,143.828 44.772 C 142.698 44.799,142.054 44.953,138.600 46.023 C 136.008 46.827,129.905 49.864,123.500 53.539 C 122.675 54.013,121.325 54.781,120.500 55.247 C 119.675 55.713,118.522 56.433,117.938 56.847 C 117.354 57.261,116.679 57.600,116.438 57.600 C 116.197 57.600,115.999 57.735,115.997 57.900 C 115.995 58.065,115.590 58.396,115.097 58.635 C 114.604 58.874,112.715 59.999,110.900 61.135 C 97.711 69.389,94.760 71.217,93.200 72.096 C 92.430 72.530,91.620 73.020,91.400 73.185 C 91.180 73.350,89.920 74.076,88.600 74.799 C 87.280 75.522,85.120 76.716,83.800 77.452 C 78.365 80.486,69.035 84.890,64.000 86.800 C 62.130 87.509,60.060 88.322,59.400 88.607 C 58.740 88.891,57.525 89.402,56.700 89.741 C 51.044 92.071,65.115 95.113,72.554 93.170 C 75.940 92.285,79.813 91.045,80.180 90.728 C 80.389 90.548,80.789 90.400,81.068 90.400 C 82.310 90.400,97.764 82.797,104.000 79.117 C 104.770 78.663,105.985 77.956,106.700 77.546 C 107.415 77.136,108.585 76.465,109.300 76.055 C 112.179 74.404,115.008 72.583,115.133 72.300 C 115.207 72.135,115.488 72.000,115.758 72.000 C 116.028 72.000,116.598 71.685,117.025 71.300 C 117.452 70.915,118.521 70.068,119.400 69.418 C 121.117 68.148,124.542 64.833,125.821 63.200 C 128.391 59.922,129.600 60.524,129.600 65.081 C 129.600 77.896,141.211 87.692,154.394 86.001 C 157.692 85.578,158.536 86.826,156.548 89.189 C 154.673 91.417,156.464 96.504,160.115 99.319 C 160.822 99.863,161.850 100.706,162.400 101.191 C 166.864 105.124,177.713 107.552,183.754 105.968 C 187.601 104.960,188.627 104.635,189.100 104.279 C 189.647 103.866,189.817 92.464,189.335 88.455 L 189.078 86.310 187.039 86.574 C 178.202 87.720,173.846 86.745,170.107 82.784 C 166.535 78.999,165.762 75.304,168.086 73.114 C 173.455 68.054,175.251 66.105,175.989 64.535 C 178.698 58.770,175.058 50.129,168.400 46.521 C 167.072 45.802,165.956 45.429,162.154 44.432 C 160.219 43.925,146.966 43.899,145.800 44.400 M237.600 44.457 C 236.830 44.677,235.480 45.056,234.600 45.300 C 228.117 47.096,223.044 53.539,223.026 60.000 C 223.015 64.014,224.422 66.537,228.776 70.308 C 232.757 73.757,233.329 74.666,232.980 76.994 C 232.298 81.543,227.771 85.580,221.959 86.822 C 219.865 87.270,218.578 87.233,212.500 86.557 L 210.400 86.323 210.400 95.112 C 210.400 104.831,210.263 104.341,213.200 105.155 C 214.190 105.430,215.553 105.822,216.228 106.027 C 228.310 109.695,249.305 96.220,243.064 88.803 C 241.299 86.706,242.284 85.527,245.405 86.001 C 247.126 86.262,253.702 85.610,255.400 85.010 C 260.044 83.369,261.728 82.311,264.933 79.022 C 268.373 75.492,270.009 71.374,270.299 65.512 C 270.573 59.987,270.897 59.974,276.119 65.285 C 279.527 68.750,286.764 74.400,287.796 74.400 C 287.939 74.400,288.841 74.940,289.800 75.600 C 290.759 76.260,291.639 76.800,291.754 76.800 C 291.870 76.800,292.918 77.365,294.082 78.056 C 304.058 83.972,316.519 90.014,323.000 92.076 C 330.199 94.367,340.665 94.182,343.916 91.707 C 345.327 90.633,345.059 90.396,340.400 88.596 C 334.943 86.487,335.093 86.546,334.000 86.094 C 330.081 84.477,325.580 82.472,323.800 81.551 C 320.995 80.099,314.711 76.736,313.230 75.895 C 312.444 75.448,310.835 74.548,309.656 73.896 C 308.476 73.243,306.046 71.801,304.256 70.689 C 302.465 69.578,300.596 68.474,300.103 68.235 C 299.610 67.996,299.205 67.665,299.203 67.500 C 299.201 67.335,299.018 67.200,298.796 67.200 C 298.574 67.200,296.909 66.240,295.096 65.066 C 287.417 60.094,285.998 59.200,285.783 59.200 C 285.658 59.200,284.496 58.480,283.200 57.600 C 281.904 56.720,280.727 56.000,280.584 56.000 C 280.441 56.000,279.846 55.667,279.262 55.261 C 276.846 53.579,263.877 46.806,262.000 46.245 C 259.140 45.390,258.026 45.097,256.200 44.720 C 253.477 44.158,239.348 43.959,237.600 44.457 M191.343 70.205 C 191.215 70.538,191.231 71.610,191.377 72.589 C 191.524 73.567,191.823 81.530,192.041 90.284 C 192.446 106.475,192.941 125.093,193.441 142.869 C 193.710 152.429,193.745 152.746,194.560 152.996 C 196.224 153.507,194.354 153.691,192.470 153.201 C 178.860 149.666,172.840 146.869,167.780 141.727 C 164.092 137.980,162.189 132.399,162.988 127.673 C 163.329 125.650,163.965 125.395,165.440 126.688 C 170.781 131.370,181.197 130.239,186.300 124.425 C 189.887 120.337,179.776 116.984,169.800 118.954 C 158.048 121.274,150.733 130.625,153.335 140.000 C 155.771 148.776,167.128 158.322,181.400 163.591 C 181.840 163.754,182.982 164.272,183.938 164.743 C 184.894 165.214,185.931 165.600,186.243 165.600 C 186.555 165.600,187.123 165.759,187.505 165.953 C 188.674 166.548,190.123 167.123,191.800 167.657 C 192.680 167.937,193.580 168.277,193.800 168.411 C 194.020 168.546,195.010 168.900,196.000 169.198 C 196.990 169.495,197.971 169.888,198.180 170.070 C 198.389 170.251,198.974 170.400,199.480 170.400 C 200.814 170.400,200.608 170.964,199.072 171.520 C 197.387 172.129,196.911 172.129,197.520 171.520 C 198.251 170.789,198.098 170.400,197.080 170.400 C 196.574 170.400,195.989 170.257,195.780 170.082 C 195.571 169.907,194.680 169.535,193.800 169.255 C 192.126 168.724,190.678 168.150,189.505 167.553 C 189.123 167.359,188.536 167.200,188.200 167.200 C 187.864 167.200,187.277 167.041,186.895 166.847 C 186.513 166.652,185.750 166.315,185.200 166.097 C 184.315 165.747,181.865 164.663,179.351 163.509 C 177.173 162.509,166.681 171.663,164.072 176.839 C 157.040 190.792,164.423 205.208,183.800 215.362 C 184.680 215.823,185.490 216.290,185.600 216.400 C 185.710 216.510,186.520 216.977,187.400 217.438 C 188.280 217.900,189.720 218.692,190.600 219.200 C 191.480 219.708,193.100 220.604,194.200 221.192 C 196.850 222.607,198.156 223.356,198.400 223.601 C 198.510 223.711,199.095 224.056,199.700 224.368 C 201.060 225.069,201.115 225.600,199.827 225.600 C 199.256 225.600,198.758 225.311,198.621 224.900 C 198.492 224.515,197.625 223.823,196.694 223.363 C 194.282 222.170,191.435 220.635,191.200 220.400 C 190.426 219.626,184.751 216.800,183.972 216.800 C 182.487 216.800,176.546 220.667,173.255 223.774 C 170.338 226.529,168.210 229.734,166.779 233.530 C 166.133 235.244,166.131 242.167,166.776 244.668 C 168.632 251.869,174.163 259.848,180.600 264.611 C 181.480 265.263,182.290 265.898,182.400 266.024 C 182.861 266.551,186.376 268.800,186.739 268.800 C 186.956 268.800,187.193 268.935,187.267 269.100 C 187.414 269.432,188.813 270.200,195.590 273.670 C 200.782 276.328,201.436 276.800,199.929 276.800 C 199.362 276.800,198.682 276.540,198.419 276.223 C 198.156 275.906,196.199 274.792,194.070 273.750 C 191.942 272.707,189.750 271.547,189.200 271.173 C 188.650 270.800,187.550 270.130,186.755 269.684 C 185.960 269.239,184.910 268.633,184.421 268.338 C 182.820 267.369,177.910 273.292,175.649 278.919 C 175.128 280.217,175.040 287.679,175.534 288.705 C 175.718 289.087,176.448 290.595,177.155 292.055 C 179.078 296.026,185.817 301.885,192.273 305.200 C 193.773 305.970,195.060 306.735,195.133 306.900 C 195.207 307.065,195.493 307.200,195.769 307.200 C 196.569 307.200,203.562 310.872,206.287 312.723 C 213.773 317.808,215.401 321.759,213.779 330.900 C 213.057 334.968,217.438 329.028,218.755 324.154 C 220.293 318.462,217.933 312.819,212.000 307.998 C 210.790 307.015,209.710 306.117,209.600 306.003 C 209.490 305.889,208.721 305.289,207.891 304.670 C 207.061 304.052,205.980 303.153,205.488 302.673 C 204.997 302.193,203.956 301.323,203.176 300.740 C 190.103 290.968,187.872 282.276,197.160 277.300 C 198.194 276.746,198.952 277.012,198.005 277.597 C 196.878 278.294,197.426 294.662,198.616 295.853 C 199.863 297.099,200.569 297.048,201.573 295.638 C 202.585 294.217,202.880 277.838,201.900 277.488 C 201.625 277.390,201.522 277.178,201.672 277.016 C 202.029 276.631,205.076 278.762,206.600 280.462 C 210.276 284.561,209.613 287.847,203.900 293.836 C 200.483 297.417,200.288 297.911,201.900 298.908 C 202.505 299.282,204.080 300.578,205.400 301.788 C 208.411 304.546,208.865 304.546,212.979 301.780 C 224.392 294.106,227.534 285.631,222.682 275.603 C 221.368 272.885,216.620 267.684,214.090 266.189 C 213.380 265.770,212.800 265.286,212.800 265.114 C 212.800 264.941,212.607 264.800,212.372 264.800 C 212.137 264.800,211.192 264.290,210.272 263.667 C 209.352 263.043,207.790 262.098,206.800 261.567 C 205.810 261.035,204.910 260.506,204.800 260.392 C 204.690 260.277,203.376 259.571,201.881 258.822 C 198.714 257.237,198.298 256.800,199.953 256.800 C 200.613 256.800,201.264 256.620,201.400 256.400 C 201.536 256.180,201.817 256.000,202.024 256.000 C 202.231 256.000,202.400 256.180,202.400 256.400 C 202.400 256.620,202.115 256.800,201.767 256.800 C 200.950 256.800,201.223 257.619,202.224 258.171 C 202.651 258.407,203.090 258.692,203.200 258.805 C 203.310 258.918,204.300 259.454,205.400 259.997 C 206.500 260.539,209.409 262.309,211.865 263.930 L 216.330 266.877 218.665 265.164 C 225.071 260.463,230.573 253.091,232.369 246.800 C 232.652 245.810,233.045 244.587,233.242 244.081 C 233.754 242.768,233.685 235.722,233.143 234.028 C 231.018 227.388,225.314 221.323,217.316 217.200 C 215.822 216.430,214.540 215.665,214.467 215.500 C 214.393 215.335,213.988 215.200,213.567 215.200 C 213.145 215.200,212.800 215.020,212.800 214.800 C 212.800 214.580,212.455 214.400,212.033 214.400 C 211.612 214.400,211.207 214.265,211.133 214.100 C 210.945 213.676,206.001 211.200,205.344 211.200 C 205.045 211.200,204.800 211.020,204.800 210.800 C 204.800 210.580,204.548 210.400,204.241 210.400 C 203.523 210.400,196.707 206.808,195.820 205.962 C 195.186 205.358,195.894 205.554,197.400 206.400 C 198.183 206.840,199.376 207.200,200.050 207.200 C 200.889 207.200,201.334 207.425,201.461 207.913 C 201.564 208.305,202.222 208.862,202.924 209.150 C 205.445 210.186,214.203 214.595,214.333 214.894 C 214.818 216.006,217.274 214.990,222.547 211.495 C 227.232 208.390,233.600 202.528,233.600 201.320 C 233.600 201.034,233.748 200.800,233.929 200.800 C 234.255 200.800,236.325 196.510,237.114 194.200 C 240.762 183.513,236.028 172.564,224.600 165.255 C 222.840 164.129,221.183 163.026,220.917 162.804 C 220.651 162.582,220.156 162.400,219.817 162.400 C 219.478 162.400,219.200 162.220,219.200 162.000 C 219.200 161.780,218.966 161.600,218.680 161.600 C 217.944 161.600,216.007 160.659,216.003 160.300 C 216.001 160.135,215.728 160.000,215.395 160.000 C 215.062 160.000,214.477 159.841,214.095 159.647 C 212.922 159.050,211.474 158.476,209.800 157.945 C 208.920 157.665,208.029 157.293,207.820 157.118 C 207.611 156.943,207.037 156.800,206.544 156.800 C 206.051 156.800,205.548 156.640,205.427 156.444 C 205.306 156.249,204.621 155.991,203.904 155.873 C 199.333 155.117,198.759 154.822,200.600 154.174 C 202.772 153.411,204.496 153.400,203.500 154.157 C 202.618 154.826,202.608 155.200,203.472 155.200 C 204.224 155.200,206.633 155.913,207.695 156.449 C 208.077 156.642,208.664 156.800,209.000 156.800 C 209.336 156.800,209.923 156.959,210.305 157.153 C 210.687 157.348,211.450 157.685,212.000 157.903 C 212.550 158.120,213.900 158.704,215.000 159.200 C 216.100 159.696,217.450 160.303,218.000 160.550 C 218.550 160.797,219.090 161.089,219.200 161.199 C 220.540 162.543,221.188 162.454,225.503 160.331 C 236.205 155.065,242.357 149.560,245.989 142.000 C 247.688 138.463,247.319 133.405,245.041 129.022 C 243.789 126.613,239.901 122.400,238.929 122.400 C 238.638 122.400,238.400 122.264,238.400 122.098 C 238.400 121.803,237.895 121.545,234.600 120.159 C 229.681 118.090,219.910 117.817,216.305 119.647 C 215.923 119.841,215.370 120.000,215.075 120.000 C 214.212 120.000,212.800 121.767,212.800 122.847 C 212.800 124.595,216.729 127.516,221.200 129.094 C 225.500 130.611,233.292 128.804,235.286 125.826 C 236.576 123.900,237.536 132.143,236.361 135.058 C 235.301 137.688,234.956 138.294,233.441 140.200 C 230.442 143.971,225.335 147.297,219.000 149.604 C 217.680 150.085,216.240 150.625,215.800 150.806 C 215.360 150.986,214.550 151.250,214.000 151.394 C 213.450 151.537,212.460 151.806,211.800 151.992 C 205.396 153.798,203.139 154.145,205.247 152.999 L 206.293 152.430 206.540 140.715 C 206.888 124.196,207.512 101.107,207.771 95.200 C 207.891 92.450,208.081 85.565,208.193 79.900 L 208.397 69.600 199.986 69.600 C 192.848 69.600,191.540 69.692,191.343 70.205 M123.374 70.914 C 122.609 71.364,116.969 75.561,115.600 76.699 C 114.914 77.269,112.485 78.982,107.600 82.340 C 98.859 88.350,89.338 93.417,81.200 96.391 C 79.246 97.105,78.497 98.546,79.877 98.936 C 85.033 100.395,91.500 100.033,96.600 98.000 C 101.324 96.118,110.744 91.349,113.215 89.590 C 113.825 89.155,114.441 88.800,114.585 88.800 C 114.838 88.800,125.961 81.324,127.225 80.304 C 128.362 79.386,128.417 78.429,127.442 76.485 C 126.922 75.448,126.317 74.150,126.098 73.600 C 124.640 69.941,124.785 70.084,123.374 70.914 M274.880 70.880 C 274.616 71.144,274.400 71.614,274.400 71.924 C 274.400 72.235,273.742 73.820,272.937 75.448 C 271.728 77.894,271.548 78.567,271.895 79.329 C 272.275 80.163,281.975 86.899,287.000 89.818 C 288.100 90.457,289.540 91.292,290.200 91.674 C 301.262 98.073,309.735 100.625,316.500 99.596 C 321.258 98.872,322.114 97.901,319.100 96.646 C 318.165 96.256,316.950 95.748,316.400 95.515 C 315.850 95.283,315.040 94.949,314.600 94.774 C 312.735 94.030,304.440 89.889,302.600 88.783 C 301.500 88.122,300.330 87.463,300.000 87.319 C 299.307 87.015,287.915 79.448,286.887 78.609 C 286.509 78.300,284.310 76.648,282.000 74.938 C 279.690 73.227,277.710 71.713,277.600 71.574 C 277.394 71.312,275.767 70.400,275.506 70.400 C 275.426 70.400,275.144 70.616,274.880 70.880 M127.584 84.041 C 126.603 84.943,124.360 86.844,122.600 88.264 C 120.840 89.684,119.106 91.087,118.746 91.380 C 117.668 92.259,112.208 95.896,110.547 96.841 C 106.309 99.252,103.980 100.511,101.700 101.622 C 98.410 103.226,98.473 103.805,102.001 104.400 C 105.752 105.033,114.054 103.559,115.780 101.953 C 115.989 101.759,116.380 101.600,116.648 101.600 C 117.468 101.600,127.172 95.800,128.000 94.815 C 128.110 94.684,130.000 93.278,132.200 91.690 C 138.480 87.157,138.003 87.710,136.600 86.575 C 135.940 86.041,135.200 85.603,134.956 85.602 C 134.712 85.601,133.695 84.880,132.695 84.000 C 130.419 81.996,129.802 82.001,127.584 84.041 M267.391 83.688 C 266.516 84.397,265.710 85.081,265.600 85.209 C 265.490 85.337,264.725 85.756,263.900 86.140 C 261.926 87.058,262.008 87.695,264.300 89.254 C 265.345 89.965,266.290 90.658,266.400 90.793 C 266.510 90.928,267.230 91.471,268.000 92.000 C 268.770 92.529,269.490 93.076,269.600 93.216 C 270.137 93.900,279.719 99.981,282.000 101.085 C 287.940 103.960,293.815 105.149,298.145 104.351 C 301.885 103.662,301.838 103.577,296.000 100.517 C 286.809 95.700,278.671 90.062,272.600 84.305 C 270.234 82.061,269.507 81.975,267.391 83.688 M137.600 92.033 C 132.266 97.125,129.283 99.651,123.700 103.807 C 120.885 105.902,120.792 106.086,122.219 106.736 C 127.381 109.088,140.720 102.731,147.788 94.550 C 151.003 90.830,150.801 90.213,146.167 89.599 C 144.645 89.398,142.860 89.133,142.200 89.010 C 141.124 88.810,140.648 89.123,137.600 92.033 M256.200 89.225 C 255.540 89.413,254.008 89.673,252.797 89.801 C 248.731 90.230,248.942 91.761,253.679 96.200 C 262.470 104.437,274.000 109.428,277.808 106.643 C 278.806 105.914,278.580 105.657,273.696 101.958 C 269.040 98.432,267.772 97.334,262.776 92.500 C 258.895 88.744,258.525 88.560,256.200 89.225 M198.200 154.000 C 198.340 154.226,198.012 154.400,197.447 154.400 C 196.897 154.400,196.336 154.220,196.200 154.000 C 196.060 153.774,196.388 153.600,196.953 153.600 C 197.503 153.600,198.064 153.780,198.200 154.000 M202.200 171.600 C 202.336 171.820,202.177 172.000,201.847 172.000 C 201.517 172.000,201.136 171.820,201.000 171.600 C 200.864 171.380,201.023 171.200,201.353 171.200 C 201.683 171.200,202.064 171.380,202.200 171.600 M196.600 172.400 C 196.464 172.620,196.083 172.800,195.753 172.800 C 195.423 172.800,195.264 172.620,195.400 172.400 C 195.536 172.180,195.917 172.000,196.247 172.000 C 196.577 172.000,196.736 172.180,196.600 172.400 M204.600 172.400 C 204.736 172.620,204.477 172.800,204.024 172.800 C 203.571 172.800,203.200 172.620,203.200 172.400 C 203.200 172.180,203.459 172.000,203.776 172.000 C 204.093 172.000,204.464 172.180,204.600 172.400 M194.600 180.100 C 194.600 184.115,194.762 191.495,194.961 196.500 C 195.372 206.879,195.604 206.340,191.733 203.989 C 186.832 201.011,183.078 196.818,181.251 192.281 C 180.693 190.896,180.654 185.337,181.200 185.000 C 181.420 184.864,181.600 184.484,181.600 184.154 C 181.600 181.568,191.226 172.902,194.200 172.812 C 194.453 172.804,194.600 175.492,194.600 180.100 M207.488 173.647 C 212.368 176.382,216.501 180.097,217.683 182.812 C 219.044 185.936,219.200 186.526,219.200 188.524 C 219.200 194.693,213.609 201.504,205.231 205.542 C 203.502 206.375,202.376 206.469,203.901 205.653 C 204.693 205.229,205.365 192.633,205.391 177.700 C 205.396 175.005,205.530 172.800,205.688 172.800 C 205.846 172.800,206.656 173.181,207.488 173.647 M196.140 238.900 C 196.472 253.473,196.666 255.640,197.660 255.900 C 198.067 256.006,198.400 256.252,198.400 256.447 C 198.400 257.045,198.211 256.960,193.800 254.369 C 182.687 247.841,182.096 237.332,192.400 229.491 C 195.075 227.455,195.401 227.225,195.636 227.213 C 195.767 227.206,195.993 232.465,196.140 238.900 M204.800 227.514 C 204.800 227.686,205.331 228.141,205.981 228.525 C 217.823 235.520,217.593 247.636,205.483 254.756 C 202.634 256.431,202.872 257.336,203.444 247.000 C 203.711 242.160,203.946 235.725,203.965 232.700 C 203.986 229.323,204.154 227.200,204.400 227.200 C 204.620 227.200,204.800 227.341,204.800 227.514 M189.400 306.654 C 188.740 307.220,187.420 308.339,186.467 309.141 C 179.998 314.586,178.945 322.724,183.769 330.000 C 186.112 333.535,186.868 333.637,186.014 330.304 C 183.804 321.681,187.232 315.667,197.300 310.505 C 198.562 309.858,198.769 308.800,197.633 308.800 C 197.212 308.800,196.807 308.665,196.733 308.500 C 196.558 308.105,191.615 305.596,191.044 305.613 C 190.800 305.620,190.060 306.088,189.400 306.654 M198.849 310.362 C 198.391 310.652,198.340 312.706,198.552 322.455 C 198.692 328.915,198.913 339.600,199.044 346.200 C 199.259 357.068,199.485 359.448,200.233 358.701 C 200.368 358.565,200.641 351.917,200.839 343.927 C 201.037 335.937,201.315 325.197,201.457 320.060 C 201.743 309.765,201.458 308.708,198.849 310.362 " stroke="none" fill="#074ead" fill-rule="evenodd"></path></g></svg>