 <svg  version="1.0" xmlns="http://www.w3.org/2000/svg"  width="900.000000pt" height="900.000000pt" viewBox="0 0 900.000000 900.000000"  preserveAspectRatio="xMidYMid meet">  <g transform="translate(0.000000,900.000000) scale(0.100000,-0.100000)" fill="#004aad" stroke="none"> <path d="M4045 7527 c-54 -14 -52 -8 -40 -97 3 -25 12 -103 20 -175 8 -71 20 -173 26 -225 6 -52 13 -115 16 -140 8 -88 9 -90 56 -90 40 0 278 28 305 36 12 3 13 64 2 142 0 2 -38 1 -85 -3 -82 -7 -85 -7 -94 16 -9 23 -24 142 -37 284 -3 39 -10 88 -15 110 -5 22 -10 65 -12 95 l-3 55 -45 2 c-24 1 -66 -4 -94 -10z"/> <path d="M4780 7523 c-111 -47 -175 -189 -187 -412 -8 -144 32 -246 109 -286 82 -42 217 -58 268 -32 22 11 25 19 26 72 1 33 -1 66 -3 73 -4 8 -29 12 -77 12 -48 0 -79 5 -93 15 -47 33 -53 157 -15 288 29 102 90 130 182 84 34 -17 60 -13 60 9 0 8 9 40 20 72 l20 57 -22 16 c-58 44 -219 62 -288 32z"/> <path d="M3485 7380 c-3 -5 -14 -10 -23 -10 -9 0 -30 -7 -46 -15 -15 -8 -34 -15 -42 -15 -25 0 -24 -19 6 -96 16 -43 30 -82 30 -87 0 -5 6 -23 14 -40 7 -18 30 -79 51 -137 21 -58 44 -119 51 -137 8 -17 14 -37 14 -45 0 -8 4 -18 8 -24 5 -5 19 -37 31 -70 l23 -62 36 10 c20 5 41 14 47 19 5 5 16 9 25 9 8 0 28 7 44 15 15 8 32 15 36 15 5 0 21 5 37 12 15 6 46 16 68 22 30 8 41 17 43 34 2 13 -1 29 -7 36 -5 6 -13 31 -17 54 -4 23 -9 42 -13 42 -3 0 -36 -12 -73 -26 -37 -14 -77 -24 -89 -22 -20 3 -36 33 -59 113 -4 17 -27 77 -49 135 -23 58 -41 109 -41 115 -1 5 -9 28 -20 50 -11 22 -19 45 -20 52 -1 44 -47 82 -65 53z"/> <path d="M5478 7353 c-8 -10 -46 -65 -84 -123 -38 -58 -73 -109 -77 -115 -4 -5 -42 -62 -84 -125 -42 -63 -92 -137 -110 -165 -37 -56 -41 -73 -15 -81 28 -10 86 -34 106 -46 16 -8 24 -4 52 28 18 22 33 42 34 47 0 14 36 6 90 -21 59 -30 60 -33 45 -108 -6 -28 -3 -33 31 -53 20 -12 50 -25 66 -28 16 -3 31 -10 34 -14 16 -26 32 -3 48 69 10 42 22 88 26 102 5 14 12 43 16 65 7 42 54 250 78 345 8 30 17 74 21 97 6 37 4 42 -17 49 -12 4 -52 20 -88 36 -36 16 -79 36 -97 44 -41 18 -57 18 -75 -3z m59 -280 c-15 -112 -50 -213 -72 -213 -23 0 -75 29 -75 41 0 6 20 42 45 79 25 37 45 71 45 74 0 15 36 55 49 56 9 0 12 -10 8 -37z"/> <path d="M3023 7169 c-13 -13 -183 -131 -245 -171 -27 -16 -48 -36 -48 -43 0 -13 38 -71 163 -250 26 -38 89 -132 139 -207 50 -76 97 -138 105 -138 15 0 257 161 291 195 l24 22 -32 57 c-18 31 -36 56 -42 56 -11 0 -51 -20 -58 -30 -3 -3 -23 -17 -45 -30 -22 -13 -43 -28 -46 -33 -4 -6 -14 -7 -23 -4 -21 8 -68 85 -64 105 2 9 29 34 61 55 31 20 57 41 57 46 0 14 -64 111 -73 111 -11 0 -101 -62 -105 -72 -2 -5 -14 -8 -27 -8 -16 0 -30 11 -44 36 -35 58 -29 74 49 123 39 24 70 50 70 57 0 14 -60 115 -75 126 -14 10 -19 10 -32 -3z"/> <path d="M6123 6953 c-26 -32 -50 -60 -53 -63 -3 -3 -36 -41 -74 -85 -38 -44 -91 -107 -120 -139 -28 -33 -79 -93 -114 -135 -60 -72 -62 -76 -44 -91 11 -8 40 -32 64 -52 25 -21 51 -38 59 -38 8 1 48 41 89 90 122 146 144 115 52 -70 -26 -52 -46 -102 -44 -110 5 -20 127 -120 146 -120 8 0 17 10 21 23 3 12 10 31 15 42 5 11 18 43 30 70 12 28 27 64 35 80 8 17 16 38 19 47 3 10 23 22 48 28 80 20 113 41 160 99 88 108 86 193 -5 285 -77 77 -217 196 -230 196 -3 0 -27 -26 -54 -57z m135 -251 c4 -37 -38 -99 -76 -113 -27 -10 -56 2 -71 30 -11 19 12 55 73 114 26 25 31 26 50 14 12 -8 22 -27 24 -45z"/> <path d="M2376 6661 c-25 -33 -46 -65 -45 -73 0 -7 36 -42 81 -78 44 -36 91 -75 104 -87 13 -12 31 -27 41 -35 10 -7 26 -23 37 -35 38 -45 -9 -35 -104 21 -51 31 -95 56 -97 56 -3 0 -32 16 -64 36 -33 19 -63 34 -69 32 -12 -4 -110 -127 -110 -138 0 -4 59 -66 130 -137 72 -72 130 -135 130 -141 0 -28 -15 -20 -256 138 -33 22 -65 40 -71 40 -11 0 -113 -121 -113 -133 0 -3 62 -43 138 -88 75 -46 139 -86 140 -91 2 -4 9 -8 16 -8 6 0 46 -22 88 -50 42 -27 78 -50 81 -50 3 0 36 -20 74 -45 37 -25 75 -45 84 -45 14 0 123 132 136 166 6 16 -20 49 -123 156 -41 42 -74 81 -74 87 0 25 27 17 150 -44 73 -36 138 -65 146 -65 7 0 18 9 24 19 5 11 16 25 22 33 39 41 88 108 88 121 0 8 -46 57 -102 109 -308 285 -422 388 -428 388 -4 0 -28 -27 -54 -59z"/> <path d="M6746 6395 c-8 -8 -17 -15 -20 -15 -3 0 -34 -19 -69 -42 -34 -24 -69 -47 -78 -53 -57 -37 -142 -93 -187 -124 -28 -20 -60 -41 -70 -46 -39 -23 -108 -70 -128 -88 l-21 -18 97 -148 c54 -81 104 -152 112 -158 10 -9 27 -3 71 24 31 19 57 38 57 41 0 4 -23 41 -50 82 -27 41 -50 80 -50 87 0 6 24 25 52 42 l53 30 22 -21 c13 -12 23 -26 23 -32 0 -6 14 -27 30 -46 25 -30 31 -33 47 -23 10 7 35 23 55 35 21 13 38 26 38 31 0 4 -18 34 -40 66 -22 32 -40 65 -40 72 0 19 61 59 88 59 16 0 34 -18 68 -71 42 -65 47 -70 72 -64 15 4 34 12 42 20 8 7 30 20 48 29 30 15 42 40 24 48 -4 2 -44 59 -89 128 -125 189 -124 188 -157 155z"/> <path d="M4434 5920 c-47 -19 -70 -103 -39 -143 7 -10 33 -24 57 -31 113 -34 195 71 119 153 -24 26 -36 31 -73 30 -23 0 -52 -4 -64 -9z"/> <path d="M3930 5901 c-63 -23 -118 -53 -335 -183 -197 -118 -285 -164 -370 -197 -27 -10 -48 -23 -45 -27 8 -13 154 -11 181 3 13 6 51 24 84 38 65 29 247 128 272 148 8 7 33 29 55 50 23 21 48 37 56 35 10 -2 20 -25 28 -66 20 -97 70 -138 184 -151 l55 -6 1 -43 c2 -76 89 -137 194 -136 80 0 100 14 100 69 0 24 -4 55 -10 69 -9 24 -14 26 -69 26 -53 0 -65 4 -96 31 -46 41 -48 83 -4 125 36 34 59 75 59 104 0 36 -51 98 -95 114 -53 21 -185 19 -245 -3z"/> <path d="M4800 5904 c-43 -18 -90 -82 -90 -122 0 -21 13 -44 45 -80 56 -62 58 -91 11 -138 -31 -31 -39 -34 -93 -34 -33 0 -64 -5 -71 -12 -7 -7 -12 -38 -12 -70 0 -65 8 -73 79 -84 100 -16 248 87 210 147 -13 21 10 39 51 39 45 0 114 28 153 63 21 19 31 41 39 87 7 34 18 64 25 67 7 3 33 -13 57 -35 78 -72 303 -198 423 -237 51 -17 178 -18 178 -1 0 4 -22 17 -50 28 -81 31 -154 67 -243 119 -45 27 -85 49 -89 49 -3 0 -20 10 -37 23 -40 29 -201 127 -210 127 -3 0 -23 10 -44 23 -87 55 -250 75 -332 41z"/> <path d="M4434 5682 c-9 -5 -9 -101 -2 -380 11 -391 9 -410 -30 -386 -10 7 -33 15 -52 19 -80 17 -182 88 -199 138 -27 75 -4 124 42 92 28 -20 80 -19 123 1 44 21 50 32 28 49 -25 19 -132 19 -176 0 -19 -8 -50 -31 -68 -51 -30 -34 -32 -42 -28 -93 3 -39 11 -66 28 -88 27 -37 122 -106 177 -130 l38 -16 -29 -21 c-96 -69 -146 -139 -146 -204 1 -74 72 -179 154 -227 25 -14 47 -33 50 -42 7 -16 -9 -33 -30 -33 -20 0 -91 -70 -108 -104 -40 -85 -5 -198 89 -284 l57 -52 -28 -33 c-93 -110 -64 -209 90 -309 7 -5 -3 -19 -26 -38 -42 -35 -68 -81 -68 -122 0 -36 14 -36 30 2 7 16 37 52 67 81 50 48 55 50 72 35 10 -9 26 -16 37 -16 24 0 89 -64 103 -102 14 -37 31 -36 31 2 0 34 -40 103 -70 122 -32 20 -24 42 29 78 103 71 117 173 36 267 -40 47 -42 53 -17 53 29 0 109 90 131 148 37 95 26 157 -40 224 -26 26 -54 48 -63 48 -8 0 -20 9 -26 19 -5 11 -20 22 -32 24 -18 3 -16 5 8 6 38 1 113 50 158 103 19 22 43 65 52 95 16 52 16 57 -1 106 -20 58 -50 95 -112 138 -46 32 -54 49 -25 49 10 0 51 22 92 49 98 65 135 120 128 192 -6 57 -40 101 -97 125 -60 25 -191 15 -191 -16 0 -4 16 -18 35 -30 36 -22 64 -23 153 -5 31 7 32 6 32 -23 0 -91 -99 -186 -217 -208 -18 -3 -38 -15 -44 -25 -10 -20 -54 -26 -64 -8 -4 6 0 16 8 22 13 10 17 72 25 382 7 274 7 372 -2 377 -6 4 -31 8 -56 8 -25 0 -50 -4 -56 -8z m30 -917 c15 -11 16 -15 5 -15 -8 0 -24 7 -35 15 -14 11 -15 14 -4 14 8 0 24 -6 34 -14z m-20 -42 c11 -42 17 -281 7 -287 -26 -16 -114 56 -137 111 -22 53 -9 99 43 150 47 45 78 55 87 26z m179 -29 c45 -44 47 -49 47 -100 0 -52 -2 -57 -49 -104 -27 -27 -61 -52 -75 -56 -14 -3 -26 -12 -26 -20 0 -8 -7 -14 -15 -14 -8 0 -15 7 -15 15 0 8 6 15 13 15 14 0 27 131 27 262 0 44 2 48 23 48 15 0 42 -18 70 -46z m-53 -314 c0 -13 -11 -13 -30 0 -12 8 -11 10 8 10 12 0 22 -4 22 -10z m-89 -123 c-13 -13 -26 -3 -16 12 3 6 11 8 17 5 6 -4 6 -10 -1 -17z m-18 -136 c9 -169 3 -179 -69 -108 -65 66 -70 113 -17 173 26 29 59 53 74 54 3 0 9 -54 12 -119z m89 108 c31 -14 88 -91 88 -118 0 -34 -25 -75 -67 -110 -59 -49 -61 -51 -73 -51 -12 0 -13 17 -1 24 5 3 12 64 16 136 4 71 9 130 11 130 2 0 13 -5 26 -11z m-56 -440 c4 -7 -1 -16 -10 -21 -17 -9 -22 -61 -10 -105 10 -37 23 -17 30 47 5 43 11 60 21 60 21 0 52 -41 53 -68 0 -30 -28 -72 -56 -82 -14 -6 -21 -16 -20 -27 2 -10 1 -13 -1 -6 -2 6 -19 18 -37 27 -39 18 -66 55 -66 89 0 25 56 95 77 96 6 1 15 -4 19 -10z"/> <path d="M3754 5652 c-45 -40 -205 -142 -279 -176 -59 -28 -76 -39 -65 -46 16 -10 82 -4 115 10 95 42 124 55 168 83 29 17 69 44 89 60 37 28 37 29 23 58 -18 34 -24 35 -51 11z"/> <path d="M5176 5641 c-14 -26 -14 -30 7 -49 64 -58 256 -155 327 -165 86 -11 79 8 -21 56 -83 40 -179 101 -259 166 -33 27 -37 26 -54 -8z"/> <path d="M3789 5522 c-30 -26 -83 -63 -117 -82 -64 -36 -83 -65 -37 -55 14 3 36 7 50 10 49 10 222 127 204 138 -2 1 -13 10 -24 19 -19 15 -23 14 -76 -30z"/> <path d="M5112 5550 c-12 -10 -22 -22 -22 -27 0 -10 123 -94 170 -115 45 -21 102 -27 107 -11 2 6 -6 15 -19 19 -27 8 -104 60 -167 113 -46 38 -47 39 -69 21z"/> <path d="M3900 5463 c-19 -19 -52 -46 -72 -60 -44 -30 -48 -43 -13 -43 51 0 195 95 195 129 0 6 -17 11 -37 10 -29 -1 -46 -9 -73 -36z"/> <path d="M4970 5489 c0 -35 143 -129 195 -129 36 0 31 13 -16 45 -23 15 -57 42 -76 61 -25 26 -42 34 -68 34 -19 0 -35 -5 -35 -11z"/> <path d="M2505 3550 c-71 -60 -89 -75 -195 -163 -52 -44 -96 -83 -98 -87 -1 -4 13 -24 31 -45 34 -38 35 -38 58 -23 13 9 42 32 64 52 22 20 43 36 46 36 4 0 21 -17 39 -37 l33 -37 -62 -54 c-33 -30 -61 -59 -61 -66 0 -14 55 -76 67 -76 4 0 31 22 59 48 29 26 63 56 77 67 14 11 65 54 115 96 l90 77 -30 36 c-16 20 -36 36 -45 36 -8 0 -39 -20 -67 -45 -29 -25 -60 -45 -69 -45 -17 0 -57 45 -57 64 0 6 27 35 60 64 33 30 60 57 60 60 0 4 -15 24 -33 46 l-33 39 -49 -43z"/> <path d="M6372 3502 c-56 -56 -112 -122 -112 -132 0 -7 113 -110 160 -145 28 -21 135 -111 158 -132 20 -19 28 -16 62 25 l31 37 -55 50 c-31 28 -56 58 -56 68 0 23 8 22 76 -13 32 -16 68 -29 79 -29 11 0 35 18 54 40 l33 39 -76 35 c-43 19 -81 35 -87 35 -5 0 -14 12 -20 28 -25 61 -35 78 -58 97 -42 34 -65 44 -104 45 -32 0 -45 -7 -85 -48z m134 -110 c22 -29 14 -72 -14 -72 -19 0 -82 59 -82 76 0 29 73 26 96 -4z"/> <path d="M6125 3243 c-33 -30 -70 -61 -82 -70 -33 -22 -29 -40 25 -97 26 -28 72 -80 102 -115 99 -116 133 -151 144 -151 6 0 47 33 91 74 80 73 80 73 65 101 -21 40 -35 41 -79 6 -45 -36 -61 -38 -84 -13 -25 27 -21 47 15 81 l33 31 -28 27 c-20 20 -31 25 -41 18 -61 -45 -68 -48 -85 -38 -30 19 -25 56 13 92 35 34 35 34 18 63 -30 52 -42 51 -107 -9z"/> <path d="M2779 3188 c-35 -40 -78 -89 -96 -108 -17 -19 -54 -63 -82 -98 l-50 -63 79 -70 c82 -72 106 -81 133 -51 24 27 21 37 -22 78 -36 32 -39 39 -29 60 16 35 54 42 82 15 29 -27 47 -27 74 2 l22 23 -26 25 c-39 36 -46 55 -32 79 17 27 44 25 80 -5 16 -14 37 -25 47 -25 18 0 61 39 61 56 0 8 -164 154 -174 154 -2 0 -33 -33 -67 -72z"/> <path d="M5840 3020 c-57 -39 -108 -70 -112 -70 -4 0 -8 -10 -8 -23 0 -19 8 -36 35 -75 1 -1 16 5 32 14 16 10 37 15 46 11 9 -3 55 -65 102 -136 47 -72 89 -133 94 -135 13 -8 81 44 81 62 0 9 -40 76 -89 149 l-88 132 28 28 c35 34 36 50 6 85 l-22 28 -105 -70z"/> <path d="M3113 2982 c-153 -160 -278 -301 -272 -305 2 -1 18 -12 36 -25 39 -27 45 -27 68 -2 23 26 46 25 80 -2 23 -18 26 -26 22 -60 -5 -36 -3 -39 36 -63 l42 -24 15 32 c9 18 26 61 40 97 13 36 29 74 37 85 7 11 13 29 13 41 0 11 3 24 6 27 10 9 54 120 54 134 0 7 -26 29 -57 49 -32 21 -64 42 -70 47 -9 6 -24 -3 -50 -31z m27 -157 c0 -14 -4 -33 -10 -43 -5 -9 -14 -30 -20 -45 -8 -23 -15 -28 -38 -25 -39 4 -34 44 14 96 43 48 54 52 54 17z"/> <path d="M5586 2868 c-25 -9 -27 -14 -22 -41 3 -17 20 -57 36 -90 17 -33 30 -64 30 -69 0 -23 -38 -1 -106 62 -41 39 -79 70 -83 70 -18 0 -91 -42 -91 -52 0 -11 9 -33 60 -143 10 -22 30 -67 44 -100 53 -121 71 -155 84 -155 19 0 72 29 72 40 0 9 -37 96 -62 147 -25 51 18 39 87 -24 22 -20 52 -47 66 -60 l25 -23 41 20 c23 11 44 24 48 29 3 6 -10 44 -30 86 -19 42 -35 79 -35 81 0 3 -20 47 -44 97 -24 51 -46 102 -50 115 -8 24 -25 26 -70 10z"/> <path d="M3431 2806 c-12 -18 -21 -39 -21 -45 0 -6 -4 -19 -10 -29 -16 -29 -80 -171 -80 -178 0 -4 -11 -31 -25 -61 -26 -53 -26 -73 -1 -73 7 0 39 -13 72 -29 86 -41 99 -44 118 -26 28 29 20 63 -18 79 -48 20 -56 40 -35 84 18 38 59 129 85 192 8 19 19 43 24 52 15 27 12 33 -25 51 -50 24 -61 22 -84 -17z"/> <path d="M3702 2731 c-8 -4 -16 -27 -19 -50 -5 -36 -3 -41 14 -41 10 0 27 -6 37 -13 20 -15 17 -38 -18 -152 -8 -27 -24 -81 -34 -118 l-20 -69 45 -19 c25 -10 48 -19 52 -19 8 0 17 27 55 160 7 25 21 73 32 108 l19 64 36 -5 c44 -6 55 0 69 37 15 40 -7 61 -73 74 -50 10 -136 33 -167 46 -8 3 -21 2 -28 -3z"/> <path d="M5165 2705 c-22 -8 -59 -17 -83 -21 -49 -7 -61 -30 -41 -79 6 -17 17 -54 25 -83 7 -28 21 -78 29 -110 9 -31 21 -82 28 -112 11 -52 14 -55 46 -58 19 -2 53 3 75 12 23 9 59 19 81 24 39 8 40 9 38 47 -3 45 -16 63 -35 48 -7 -6 -30 -13 -50 -17 -32 -6 -39 -4 -53 18 -28 43 -13 68 48 81 26 5 28 9 25 43 l-3 37 -54 -3 c-57 -4 -71 5 -71 44 0 17 12 26 53 41 47 19 52 23 49 49 -1 16 -5 35 -7 42 -6 16 -50 15 -100 -3z"/> <path d="M4046 2628 c-3 -13 -6 -41 -6 -64 0 -22 -6 -85 -14 -140 -8 -54 -16 -128 -18 -164 l-3 -65 55 0 55 0 10 80 10 80 38 -1 c21 -1 41 -5 45 -9 4 -4 7 -46 7 -93 l0 -87 53 -3 c44 -3 52 0 53 15 0 10 4 52 9 93 29 238 36 316 28 326 -14 18 -77 27 -94 13 -8 -6 -14 -29 -14 -54 0 -61 -11 -106 -26 -112 -8 -3 -31 -2 -50 2 l-37 6 7 85 c7 94 8 91 -70 108 -27 6 -32 4 -38 -16z"/> <path d="M4818 2636 c-91 -28 -125 -96 -114 -226 8 -99 30 -157 72 -198 36 -34 36 -34 115 -30 99 6 117 19 99 72 -12 37 -27 44 -62 25 -54 -29 -103 29 -113 138 -6 60 -5 71 15 96 17 22 29 27 65 27 45 0 55 10 55 54 0 50 -53 67 -132 42z"/> </g> </svg> 